<svg width="333" height="152" viewBox="0 0 333 152" fill="none" xmlns="http://www.w3.org/2000/svg">
<rect width="333" height="152" rx="20" fill="#F4F3F4"/>
<rect x="13" y="11" width="307" height="130" rx="20" fill="url(#paint0_linear_31:3)" fill-opacity="0.9"/>
<path d="M67.7812 76.4688C66.1875 75.2188 64.5 74.0938 62.7188 73.125C61.0938 72.1875 59.5312 71.1875 58.0625 70.0625C57.5312 69.6562 57 69.1875 56.5 68.6875C56 68.1562 55.7188 67.625 55.6562 67.0938C55.5938 66.5312 55.9062 66.0312 56.625 65.5312C57.1875 65.1875 58.0938 64.875 59.3438 64.6562C60.5625 64.4062 61.7812 64.2812 62.9688 64.25C64.1562 64.25 64.9688 64.4375 65.3438 64.8125C66.7188 66.3125 68.4062 67 70.4375 66.9062C72.4375 66.8438 74.1562 66.125 75.5625 64.8125C77.0312 63.2812 77.7188 61.5938 77.625 59.7188C77.5312 57.875 76.8438 56.1562 75.5625 54.5938C72.5938 51.5 68.5625 49.9062 63.4688 49.8125C58.375 49.75 54 50.625 50.3438 52.5C45.8438 55.0312 42.9688 58.5938 41.7188 63.1562C40.5 67.7188 41.375 72.1875 44.375 76.5312C47.0625 79.8438 50.25 82.5312 54.0312 84.5938C54.2812 84.75 54.5312 84.9062 54.7812 85.0312C56.125 85.7812 57.3438 86.625 58.4688 87.5312C59.5938 88.4375 60.4375 89.6562 60.9688 91.125C61.375 92.2812 61.5312 93.25 61.375 94.0625C61.2188 94.8438 60.5312 95.25 59.2812 95.2812C57.875 95.1562 56.5 94.4688 55.1875 93.2188C53.8438 91.9375 52.6875 90.6875 51.6875 89.4062C51.3438 88.9375 51 88.5625 50.7188 88.2188C48.5312 86 46.3125 85.3125 43.9688 86.1875C41.6562 87.0312 40.0312 88.6875 39.0625 91.125C38.125 93.5312 38.5938 95.9688 40.5 98.4375C43.375 101.906 46.7188 104.781 50.5312 107.094C54.3438 109.438 58.5938 110.188 63.3125 109.375C68.5625 108.094 72.0938 105.344 73.9688 101.094C75.8125 96.8438 76.125 92.25 74.9062 87.2812C73.6562 82.9375 71.2812 79.3438 67.7812 76.4688ZM122.969 45C122.188 45.0312 121.406 45.0625 120.625 45.0938C110.875 45.5 101.125 45.9062 91.375 46.3125C88.2812 46.625 86.2188 47.9375 85.1875 50.3125C84.1562 52.6875 84.1562 55 85.1875 57.2812C86.2188 59.5625 88.2812 60.7188 91.375 60.75C92.7812 60.7188 94.1875 60.6562 95.5938 60.5938C96.9688 60.5312 98.375 60.4688 99.7812 60.4062C100.781 73.125 101.594 85.8438 102.25 98.5625C102.594 101.656 103.938 103.719 106.312 104.75C108.688 105.781 111 105.781 113.281 104.75C115.531 103.719 116.688 101.656 116.719 98.5625C116.062 85.625 115.219 72.7188 114.188 59.8125C117.125 59.6875 120.031 59.5625 122.969 59.4375C126.062 59.1562 128.125 57.8125 129.156 55.4375C130.188 53.0938 130.188 50.7812 129.156 48.5C128.125 46.2188 126.062 45.0625 122.969 45ZM188.812 101.688C182.531 85.9375 177.062 69.875 172.406 53.5625C171.344 50.6875 169.281 48.9688 166.25 48.4062C163.219 47.8438 160.875 49 159.188 51.8438C152.125 66.875 144.844 81.7812 137.312 96.5938C136.062 99.4688 136.188 101.938 137.719 104.031C139.25 106.125 141.25 107.281 143.75 107.531C146.219 107.781 148.219 106.562 149.781 103.906C150.781 101.938 151.75 100 152.719 98.0312C153.094 97.3125 153.469 96.5625 153.844 95.8125C159.875 96.6562 165.906 97.4062 171.969 98C172.906 100.531 173.875 103.031 174.875 105.531C175.625 107.406 176.781 108.844 178.344 109.844C179.875 110.844 181.688 111.094 183.781 110.594C185.594 110.031 187.062 108.875 188.156 107.156C189.25 105.438 189.469 103.594 188.812 101.688ZM160.562 82.25C160.938 81.4375 161.344 80.6562 161.719 79.8438C162.469 78.3438 163.219 76.8125 163.938 75.3125C164.781 77.875 165.656 80.4375 166.531 82.9688C164.531 82.75 162.531 82.5 160.562 82.25ZM234.094 89.875C230.688 87.0625 227.25 84.3438 223.75 81.6562C230.875 77 234.406 70.25 234.406 61.4062C233.781 54.6875 230.562 49.5625 224.812 46.0312C222.031 44.5312 218.938 43.8125 215.594 43.9062C212.219 44 209 44.5625 205.875 45.5625C203.562 44.5312 201.219 44.5312 198.938 45.5625C196.656 46.5938 195.438 48.6562 195.344 51.7812C195.625 66.8438 195.688 81.9375 195.5 97.0312C195.625 100.156 196.875 102.219 199.156 103.25C201.469 104.281 203.781 104.281 206.125 103.25C208.469 102.219 209.719 100.156 209.938 97.0312C209.969 94.4688 210 91.875 210 89.3125C214.719 92.7812 219.344 96.375 223.875 100.094C225.438 101.375 227.156 102.031 229 102.125C230.875 102.219 232.562 101.531 234.094 100.094C235.406 98.6875 236.125 96.9688 236.219 94.9375C236.312 92.9062 235.594 91.2188 234.094 89.875ZM220 63.5625C219.812 65.9062 218.781 67.8125 216.844 69.25C214.906 70.6875 212.719 71.7812 210.344 72.5312C210.312 72.5312 210.281 72.5312 210.25 72.5312C210.156 72.5 210.094 72.5 210.031 72.4688C210 68.125 209.969 63.7812 209.906 59.4062C212.375 58.5625 214.656 58.3125 216.75 58.625C218.844 58.9375 219.938 60.5938 220 63.5625ZM281.094 45C280.312 45.0312 279.531 45.0625 278.75 45.0938C269 45.5 259.25 45.9062 249.5 46.3125C246.406 46.625 244.344 47.9375 243.312 50.3125C242.281 52.6875 242.281 55 243.312 57.2812C244.344 59.5625 246.406 60.7188 249.5 60.75C250.906 60.7188 252.312 60.6562 253.719 60.5938C255.094 60.5312 256.5 60.4688 257.906 60.4062C258.906 73.125 259.719 85.8438 260.375 98.5625C260.719 101.656 262.062 103.719 264.438 104.75C266.812 105.781 269.125 105.781 271.406 104.75C273.656 103.719 274.812 101.656 274.844 98.5625C274.188 85.625 273.344 72.7188 272.312 59.8125C275.25 59.6875 278.156 59.5625 281.094 59.4375C284.188 59.1562 286.25 57.8125 287.281 55.4375C288.312 53.0938 288.312 50.7812 287.281 48.5C286.25 46.2188 284.188 45.0625 281.094 45Z" fill="#D9692A"/>
<defs>
<linearGradient id="paint0_linear_31:3" x1="267" y1="11" x2="27.5" y2="121" gradientUnits="userSpaceOnUse">
<stop stop-color="#F3BA48"/>
<stop offset="0.166667" stop-color="#F4C04A"/>
<stop offset="0.307292" stop-color="#F6CB4F"/>
<stop offset="0.470969" stop-color="#F7D252"/>
<stop offset="0.645833" stop-color="#F6CD50"/>
<stop offset="0.802083" stop-color="#F4C24B"/>
<stop offset="1" stop-color="#F3BA48"/>
</linearGradient>
</defs>
</svg>
